<?xml version="1.0" standalone="no"?>
<!DOCTYPE svg PUBLIC "-//W3C//DTD SVG 20010904//EN"
 "http://www.w3.org/TR/2001/REC-SVG-20010904/DTD/svg10.dtd">
<svg version="1.0" xmlns="http://www.w3.org/2000/svg"
 width="225.000000pt" height="225.000000pt" viewBox="0 0 225.000000 225.000000"
 preserveAspectRatio="xMidYMid meet">
<metadata>
Created by potrace 1.11, written by Peter Selinger 2001-2013
</metadata>
<g transform="translate(0.000000,225.000000) scale(0.100000,-0.100000)"
fill="#000000" stroke="none">
<path d="M1409 2061 c0 -25 -1 -174 -1 -331 0 -258 2 -290 20 -341 67 -190
227 -298 427 -287 197 10 359 159 386 354 5 38 8 199 7 358 l-3 288 -137 -137
-138 -138 -140 -1 -141 -1 -139 141 -140 141 -1 -46z m283 -461 c66 -51 14
-145 -65 -118 -15 6 -32 19 -38 30 -22 41 16 108 62 108 9 0 28 -9 41 -20z
m341 11 c43 -17 53 -88 16 -117 -26 -20 -46 -22 -77 -7 -37 18 -48 53 -27 92
20 40 44 49 88 32z"/>
<path d="M102 1820 c-123 -29 -132 -215 -13 -261 13 -5 42 -12 65 -14 48 -6
84 -30 109 -73 17 -29 18 -73 20 -649 l2 -618 31 -55 c37 -66 108 -123 172
-138 31 -7 191 -10 464 -9 372 2 419 4 434 18 24 24 26 128 3 178 -27 60 -58
75 -166 81 l-93 5 272 205 c150 113 276 206 280 208 4 2 7 -133 7 -300 0 -167
0 -315 0 -330 1 -15 11 -36 23 -48 19 -17 35 -20 115 -20 86 0 96 2 118 25
l25 24 0 461 0 461 -57 -7 c-283 -39 -544 126 -623 394 -14 45 -14 45 -79 43
-128 -5 -293 -59 -409 -134 -71 -46 -167 -137 -213 -200 l-28 -39 1 214 c0
214 -6 263 -40 338 -59 131 -197 230 -337 244 -27 2 -65 1 -83 -4z"/>
</g>
</svg>
